{
  "source": "C:\\Users\\Peter\\Desktop\\stuff\\MIUN\\quantitative_research\\video_compression\\videos\\BVI-HD\\RockWater_1920x1080_30fps.mp4",
  "output": "C:\\Users\\Peter\\Desktop\\stuff\\MIUN\\quantitative_research\\video_compression\\compressed_videos\\BVI-HD\\av1\\1.5\\RockWater_1920x1080_30fps_av1.mkv",
  "codec": "av1",
  "ok": "Input #0, mov,mp4,m4a,3gp,3g2,mj2, from 'C:\\Users\\Peter\\Desktop\\stuff\\MIUN\\quantitative_research\\video_compression\\videos\\BVI-HD\\RockWater_1920x1080_30fps.mp4':\n  Metadata:\n    major_brand     : isom\n    minor_version   : 512\n    compatible_brands: isomiso2avc1mp41\n    encoder         : Lavf54.28.101\n  Duration: 00:00:05.00, start: 0.000000, bitrate: 245943 kb/s\n  Stream #0:0[0x1](und): Video: h264 (High 4:4:4 Predictive) (avc1 / 0x31637661), yuv420p(progressive), 1920x1080, 245940 kb/s, 30 fps, 30 tbr, 30 tbn (default)\n    Metadata:\n      handler_name    : VideoHandler\n      vendor_id       : [0][0][0][0]\n[out#0/matroska @ 0000021e4fc20d00] Codec AVOption b:a (set bitrate (in bits/s)) has not been used for any stream. The most likely reason is either wrong type (e.g. a video option with no video streams) or that it is a private option of some decoder which was not actually used for any stream.\nStream mapping:\n  Stream #0:0 -> #0:0 (h264 (native) -> av1 (libsvtav1))\nPress [q] to stop, [?] for help\nSvt[info]: -------------------------------------------\nSvt[info]: SVT [version]:\tSVT-AV1 Encoder Lib v3.1.0-19-g6ecfe8ec\nSvt[info]: SVT [build]  :\tGCC 15.2.0\t 64 bit\nSvt[info]: LIB Build date: Aug 17 2025 11:37:13\nSvt[info]: -------------------------------------------\nSvt[info]: Level of Parallelism: 5\nSvt[info]: Number of PPCS 93\nSvt[info]: [asm level on system : up to avx2]\nSvt[info]: [asm level selected : up to avx2]\nSvt[info]: -------------------------------------------\nSvt[info]: SVT [config]: main profile\ttier (auto)\tlevel (auto)\nSvt[info]: SVT [config]: width / height / fps numerator / fps denominator \t\t: 1920 / 1080 / 30 / 1\nSvt[info]: SVT [config]: bit-depth / color format \t\t\t\t\t: 8 / YUV420\nSvt[info]: SVT [config]: preset / tune / pred struct \t\t\t\t\t: 4 / PSNR / random access\nSvt[info]: SVT [config]: gop size / mini-gop size / key-frame type \t\t\t: 161 / 16 / key frame\nSvt[info]: SVT [config]: BRC mode / target bitrate (kbps)\t\t\t\t: VBR / 1500 \nSvt[info]: SVT [config]: AQ mode / Variance Boost \t\t\t\t\t: 2 / 0\nSvt[info]: SVT [config]: sharpness / luminance-based QP bias \t\t\t\t: 0 / 0\nSvt[info]: SVT [config]: QP scale compress strength \t\t\t\t\t: 0\nSvt[info]: -------------------------------------------\nOutput #0, matroska, to 'C:\\Users\\Peter\\Desktop\\stuff\\MIUN\\quantitative_research\\video_compression\\compressed_videos\\BVI-HD\\av1\\1.5\\RockWater_1920x1080_30fps_av1.mkv':\n  Metadata:\n    major_brand     : isom\n    minor_version   : 512\n    compatible_brands: isomiso2avc1mp41\n    encoder         : Lavf62.3.100\n  Stream #0:0(und): Video: av1 (AV01 / 0x31305641), yuv420p(tv, progressive), 1920x1080, q=2-31, 1500 kb/s, 30 fps, 1k tbn (default)\n    Metadata:\n      encoder         : Lavc62.11.100 libsvtav1\n      handler_name    : VideoHandler\n      vendor_id       : [0][0][0][0]\n    Side data:\n      cpb: bitrate max/min/avg: 0/0/1500000 buffer size: 1500000 vbv_delay: N/A\nframe=    0 fps=0.0 q=0.0 size=       0KiB time=N/A bitrate=N/A speed=N/A elapsed=0:00:00.50    \nframe=    0 fps=0.0 q=0.0 size=       0KiB time=N/A bitrate=N/A speed=N/A elapsed=0:00:01.03    \nframe=    0 fps=0.0 q=0.0 size=       0KiB time=N/A bitrate=N/A speed=N/A elapsed=0:00:01.55    \nframe=    0 fps=0.0 q=0.0 size=       0KiB time=N/A bitrate=N/A speed=N/A elapsed=0:00:02.09    \nframe=    0 fps=0.0 q=0.0 size=       0KiB time=N/A bitrate=N/A speed=N/A elapsed=0:00:02.62    \nframe=    1 fps=0.3 q=36.0 size=       1KiB time=00:00:00.00 bitrate=N/A speed=   0x elapsed=0:00:03.15    \nframe=    1 fps=0.3 q=36.0 size=       1KiB time=00:00:00.00 bitrate=N/A speed=   0x elapsed=0:00:03.66    \nframe=    4 fps=1.0 q=52.0 size=       1KiB time=00:00:00.10 bitrate=  57.0kbits/s speed=0.024x elapsed=0:00:04.17    \nframe=    7 fps=1.5 q=48.0 size=       1KiB time=00:00:00.20 bitrate=  28.5kbits/s speed=0.0426x elapsed=0:00:04.69    \nframe=   10 fps=1.9 q=51.0 size=       1KiB time=00:00:00.30 bitrate=  19.0kbits/s speed=0.0575x elapsed=0:00:05.21    \nframe=   14 fps=2.4 q=52.0 size=       1KiB time=00:00:00.43 bitrate=  13.2kbits/s speed=0.0757x elapsed=0:00:05.72    \nframe=   19 fps=3.0 q=49.0 size=       1KiB time=00:00:00.60 bitrate=   9.5kbits/s speed=0.0961x elapsed=0:00:06.24    \nframe=   22 fps=3.3 q=52.0 size=       1KiB time=00:00:00.70 bitrate=   8.1kbits/s speed=0.103x elapsed=0:00:06.76    \nframe=   24 fps=3.3 q=52.0 size=       1KiB time=00:00:00.76 bitrate=   7.4kbits/s speed=0.105x elapsed=0:00:07.28    \nframe=   28 fps=3.6 q=54.0 size=       1KiB time=00:00:00.90 bitrate=   6.3kbits/s speed=0.115x elapsed=0:00:07.79    \nframe=   34 fps=4.1 q=54.0 size=       1KiB time=00:00:01.10 bitrate=   5.2kbits/s speed=0.132x elapsed=0:00:08.30    \nframe=   38 fps=4.3 q=54.0 size=       1KiB time=00:00:01.23 bitrate=   4.6kbits/s speed=0.14x elapsed=0:00:08.82    \nframe=   39 fps=4.2 q=52.0 size=       1KiB time=00:00:01.26 bitrate=   4.5kbits/s speed=0.136x elapsed=0:00:09.33    \nframe=   43 fps=4.4 q=51.0 size=       1KiB time=00:00:01.40 bitrate=   4.1kbits/s speed=0.142x elapsed=0:00:09.85    \nframe=   49 fps=4.7 q=36.0 size=       1KiB time=00:00:01.60 bitrate=   3.6kbits/s speed=0.154x elapsed=0:00:10.36    \nframe=   55 fps=5.0 q=55.0 size=       1KiB time=00:00:01.80 bitrate=   3.2kbits/s speed=0.165x elapsed=0:00:10.89    \nframe=   57 fps=5.0 q=47.0 size=       1KiB time=00:00:01.86 bitrate=   3.1kbits/s speed=0.164x elapsed=0:00:11.41    \nframe=   61 fps=5.1 q=51.0 size=       1KiB time=00:00:02.00 bitrate=   2.9kbits/s speed=0.168x elapsed=0:00:11.92    \nframe=   69 fps=5.5 q=54.0 size=       1KiB time=00:00:02.26 bitrate=   2.5kbits/s speed=0.182x elapsed=0:00:12.43    \nframe=   73 fps=5.6 q=50.0 size=       1KiB time=00:00:02.40 bitrate=   2.4kbits/s speed=0.185x elapsed=0:00:12.95    \nframe=   79 fps=5.9 q=56.0 size=       1KiB time=00:00:02.60 bitrate=   2.2kbits/s speed=0.193x elapsed=0:00:13.47    \nframe=   87 fps=6.2 q=58.0 size=       1KiB time=00:00:02.86 bitrate=   2.0kbits/s speed=0.205x elapsed=0:00:13.98    \nframe=   91 fps=6.3 q=58.0 size=       1KiB time=00:00:03.00 bitrate=   1.9kbits/s speed=0.207x elapsed=0:00:14.51    \nframe=   97 fps=6.5 q=44.0 size=       1KiB time=00:00:03.20 bitrate=   1.8kbits/s speed=0.213x elapsed=0:00:15.01    \nframe=  105 fps=6.8 q=54.0 size=       1KiB time=00:00:03.46 bitrate=   1.6kbits/s speed=0.223x elapsed=0:00:15.54    \nframe=  105 fps=6.5 q=54.0 size=       1KiB time=00:00:03.46 bitrate=   1.6kbits/s speed=0.216x elapsed=0:00:16.05    \nframe=  109 fps=6.6 q=53.0 size=       1KiB time=00:00:03.60 bitrate=   1.6kbits/s speed=0.217x elapsed=0:00:16.57    \nframe=  115 fps=6.7 q=56.0 size=       1KiB time=00:00:03.80 bitrate=   1.5kbits/s speed=0.222x elapsed=0:00:17.08    \nframe=  121 fps=6.9 q=52.0 size=       1KiB time=00:00:04.00 bitrate=   1.4kbits/s speed=0.227x elapsed=0:00:17.60    \nframe=  123 fps=6.8 q=55.0 size=       1KiB time=00:00:04.06 bitrate=   1.4kbits/s speed=0.224x elapsed=0:00:18.11    \nframe=  127 fps=6.8 q=55.0 size=       1KiB time=00:00:04.20 bitrate=   1.4kbits/s speed=0.225x elapsed=0:00:18.62    \nframe=  133 fps=6.9 q=56.0 size=       1KiB time=00:00:04.40 bitrate=   1.3kbits/s speed=0.23x elapsed=0:00:19.15    \nframe=  137 fps=7.0 q=53.0 size=       1KiB time=00:00:04.53 bitrate=   1.3kbits/s speed=0.231x elapsed=0:00:19.66    \nframe=  141 fps=7.0 q=56.0 size=       1KiB time=00:00:04.66 bitrate=   1.2kbits/s speed=0.231x elapsed=0:00:20.18    \n[out#0/matroska @ 0000021e4fc20d00] video:973KiB audio:0KiB subtitle:0KiB other streams:0KiB global headers:0KiB muxing overhead: 0.145481%\nframe=  150 fps=7.4 q=56.0 Lsize=     974KiB time=00:00:04.96 bitrate=1606.6kbits/s speed=0.244x elapsed=0:00:20.32    \n",
  "seconds": 20.607553243637085,
  "probe_out": {}
}